<svg width="21" height="15" xmlns="http://www.w3.org/2000/svg"><defs><linearGradient x1="50%" y1="0%" x2="50%" y2="100%" id="a"><stop stop-color="#2C56A2" offset="0%"/><stop stop-color="#244889" offset="100%"/></linearGradient><linearGradient x1="50%" y1="0%" x2="50%" y2="100%" id="b"><stop stop-color="#FFF" offset="0%"/><stop stop-color="#F0F0F0" offset="100%"/></linearGradient></defs><g fill="none"><path fill="url(#a)" d="M0 0h21v15H0z"/><path d="M12-3v9h9v3h-9.001L12 18H9l-.001-9H0V6h9v-9h3zm5 13v1h1v1h-1v1h-1v-1.001L15 12v-1l1-.001V10h1zM5 10v1h1v1H5v1H4v-1.001L3 12v-1l1-.001V10h1zm0-8v1h1v1H5v1H4V3.999L3 4V3l1-.001V2h1zm12 0v1h1v1h-1v1h-1V3.999L15 4V3l1-.001V2h1z" fill="url(#b)"/></g></svg>